<?xml version="1.0" encoding="UTF-8" standalone="no"?>
<!DOCTYPE svg PUBLIC "-//W3C//DTD SVG 1.1//EN"
 "http://www.w3.org/Graphics/SVG/1.1/DTD/svg11.dtd">
<!-- Generated by graphviz version 2.44.1 (20201121.0304)
 -->
<!-- Title: G Pages: 1 -->
<svg width="680pt" height="634pt"
 viewBox="0.00 0.00 680.00 634.00" xmlns="http://www.w3.org/2000/svg" xmlns:xlink="http://www.w3.org/1999/xlink"><style>
  * {
    fill: transparent !important;
    stroke: rgb(255, 255, 255) !important;
    stroke-width: 1 !important;
  }
  polygon:not(.cluster *, .node *, .edge *, text) {
    stroke: transparent !important;
  }
  text {
    font-size: 10px !important;
    font-family: monospace !important;
    fill: rgb(255, 255, 255) !important;
    stroke: transparent !important;
    transform: translateY(-0.5em);
  }
</style>
<g id="graph0" class="graph" transform="scale(1 1) rotate(0) translate(4 629.75)">
<title>G</title>
<polygon fill="white" stroke="none" points="-4,4 -4,-629.75 676.36,-629.75 676.36,4 -4,4"/>
<!-- Ray Orchestration -->
<g id="node1" class="node">
<title>Ray Orchestration</title>
<polygon fill="lightblue" stroke="black" points="363.86,-604 220.36,-604 220.36,-568 363.86,-568 363.86,-604"/>
<text xml:space="preserve" text-anchor="middle" x="292.11" y="-577.95" font-family="Times,serif" font-size="14.00">Ray Orchestration</text>
</g>
<!-- Data Source -->
<g id="node2" class="node">
<title>Data Source</title>
<polygon fill="lightblue" stroke="black" points="274.36,-422 175.86,-422 175.86,-386 274.36,-386 274.36,-422"/>
<text xml:space="preserve" text-anchor="middle" x="225.11" y="-395.95" font-family="Times,serif" font-size="14.00">Data Source</text>
</g>
<!-- Ray Orchestration&#45;&gt;Data Source -->
<g id="edge1" class="edge">
<title>Ray Orchestration&#45;&gt;Data Source</title>
<path fill="none" stroke="black" d="M281.55,-567.72C271.71,-550.98 257.22,-524.63 248.11,-500.25 239.95,-478.45 233.94,-452.74 230.12,-433.54"/>
<polygon fill="black" stroke="black" points="233.56,-432.89 228.25,-423.72 226.68,-434.2 233.56,-432.89"/>
<text xml:space="preserve" text-anchor="middle" x="293.11" y="-486.95" font-family="Times,serif" font-size="14.00">orchestrates</text>
</g>
<!-- SGLang Rollout -->
<g id="node3" class="node">
<title>SGLang Rollout</title>
<polygon fill="lightblue" stroke="black" points="423.36,-240 144.86,-240 144.86,-204 423.36,-204 423.36,-240"/>
<text xml:space="preserve" text-anchor="middle" x="284.11" y="-213.95" font-family="Times,serif" font-size="14.00">SGLang Rollout (Generation &amp; Async)</text>
</g>
<!-- Ray Orchestration&#45;&gt;SGLang Rollout -->
<g id="edge2" class="edge">
<title>Ray Orchestration&#45;&gt;SGLang Rollout</title>
<path fill="none" stroke="black" d="M304.95,-567.58C316.2,-551.16 331.72,-525.4 338.11,-500.25 359.16,-417.33 362.05,-389.89 338.11,-307.75 331.82,-286.19 318.2,-264.88 306.21,-249.02"/>
<polygon fill="black" stroke="black" points="309.27,-247.25 300.35,-241.55 303.77,-251.58 309.27,-247.25"/>
<text xml:space="preserve" text-anchor="middle" x="381.25" y="-395.95" font-family="Times,serif" font-size="14.00">manages</text>
</g>
<!-- Data Source&#45;&gt;SGLang Rollout -->
<g id="edge3" class="edge">
<title>Data Source&#45;&gt;SGLang Rollout</title>
<path fill="none" stroke="black" d="M219.8,-385.61C214.76,-366.1 209.17,-333.78 218.11,-307.75 225.87,-285.13 242.42,-263.9 257.01,-248.35"/>
<polygon fill="black" stroke="black" points="259.3,-251.01 263.78,-241.41 254.29,-246.12 259.3,-251.01"/>
<text xml:space="preserve" text-anchor="middle" x="278.11" y="-304.95" font-family="Times,serif" font-size="14.00">provides samples</text>
</g>
<!-- RM Hub -->
<g id="node4" class="node">
<title>RM Hub</title>
<polygon fill="lightblue" stroke="black" points="107.61,-58 46.61,-58 46.61,-22 107.61,-22 107.61,-58"/>
<text xml:space="preserve" text-anchor="middle" x="77.11" y="-31.95" font-family="Times,serif" font-size="14.00">RM Hub</text>
</g>
<!-- SGLang Rollout&#45;&gt;RM Hub -->
<g id="edge4" class="edge">
<title>SGLang Rollout&#45;&gt;RM Hub</title>
<path fill="none" stroke="black" d="M184.55,-203.52C113.88,-188.85 27.84,-165.6 6.11,-136.25 -11.88,-111.97 13.98,-84.28 39.38,-65.04"/>
<polygon fill="black" stroke="black" points="41.35,-67.93 47.41,-59.24 37.26,-62.26 41.35,-67.93"/>
<text xml:space="preserve" text-anchor="middle" x="66.11" y="-122.95" font-family="Times,serif" font-size="14.00">requests rewards</text>
</g>
<!-- Filter Hub -->
<g id="node5" class="node">
<title>Filter Hub</title>
<polygon fill="lightblue" stroke="black" points="382.61,-58 291.61,-58 291.61,-22 382.61,-22 382.61,-58"/>
<text xml:space="preserve" text-anchor="middle" x="337.11" y="-31.95" font-family="Times,serif" font-size="14.00">Filter Hub</text>
</g>
<!-- SGLang Rollout&#45;&gt;Filter Hub -->
<g id="edge5" class="edge">
<title>SGLang Rollout&#45;&gt;Filter Hub</title>
<path fill="none" stroke="black" d="M281.71,-203.74C279.62,-184.35 278,-152.13 285.61,-125.75 291.73,-104.52 304.66,-83.27 316.03,-67.36"/>
<polygon fill="black" stroke="black" points="318.79,-69.52 321.94,-59.41 313.17,-65.35 318.79,-69.52"/>
<text xml:space="preserve" text-anchor="middle" x="341.86" y="-122.95" font-family="Times,serif" font-size="14.00">applies filters</text>
</g>
<!-- RL Data Output -->
<g id="node6" class="node">
<title>RL Data Output</title>
<polygon fill="lightblue" stroke="black" points="672.36,-58 453.86,-58 453.86,-22 672.36,-22 672.36,-58"/>
<text xml:space="preserve" text-anchor="middle" x="563.11" y="-31.95" font-family="Times,serif" font-size="14.00">RL Data Output (Train/Eval)</text>
</g>
<!-- SGLang Rollout&#45;&gt;RL Data Output -->
<g id="edge8" class="edge">
<title>SGLang Rollout&#45;&gt;RL Data Output</title>
<path fill="none" stroke="black" d="M392.45,-203.53C438.2,-191.34 489.1,-170.79 525.11,-136.25 543.66,-118.45 553.38,-90.41 558.32,-69.35"/>
<polygon fill="black" stroke="black" points="561.72,-70.17 560.34,-59.67 554.87,-68.74 561.72,-70.17"/>
<text xml:space="preserve" text-anchor="middle" x="582.91" y="-122.95" font-family="Times,serif" font-size="14.00">produces data</text>
</g>
<!-- RM Hub&#45;&gt;SGLang Rollout -->
<g id="edge6" class="edge">
<title>RM Hub&#45;&gt;SGLang Rollout</title>
<path fill="none" stroke="black" d="M91.71,-58.47C108.72,-78.33 138.13,-111.24 166.61,-136.25 192.18,-158.72 223.56,-181.12 247.46,-197.24"/>
<polygon fill="black" stroke="black" points="245.35,-200.05 255.61,-202.69 249.24,-194.23 245.35,-200.05"/>
<text xml:space="preserve" text-anchor="middle" x="222.86" y="-122.95" font-family="Times,serif" font-size="14.00">returns rewards</text>
</g>
<!-- Filter Hub&#45;&gt;SGLang Rollout -->
<g id="edge7" class="edge">
<title>Filter Hub&#45;&gt;SGLang Rollout</title>
<path fill="none" stroke="black" d="M361.1,-58.26C383.82,-76.86 412.48,-107.65 398.11,-136.25 384.48,-163.36 357.61,-183.99 333.39,-198.11"/>
<polygon fill="black" stroke="black" points="331.92,-194.91 324.89,-202.83 335.33,-201.03 331.92,-194.91"/>
<text xml:space="preserve" text-anchor="middle" x="461.06" y="-122.95" font-family="Times,serif" font-size="14.00">returns decision</text>
</g>
</g>
</svg>
