<?xml version="1.0" encoding="UTF-8" standalone="no"?>
<!DOCTYPE svg PUBLIC "-//W3C//DTD SVG 1.1//EN"
 "http://www.w3.org/Graphics/SVG/1.1/DTD/svg11.dtd">
<!-- Generated by graphviz version 2.44.1 (20201121.0304)
 -->
<!-- Title: G Pages: 1 -->
<svg width="361pt" height="309pt"
 viewBox="0.00 0.00 361.00 309.00" xmlns="http://www.w3.org/2000/svg" xmlns:xlink="http://www.w3.org/1999/xlink"><style>
  * {
    fill: transparent !important;
    stroke: rgb(255, 255, 255) !important;
    stroke-width: 1 !important;
  }
  polygon:not(.cluster *, .node *, .edge *, text) {
    stroke: transparent !important;
  }
  text {
    font-size: 10px !important;
    font-family: monospace !important;
    fill: rgb(255, 255, 255) !important;
    stroke: transparent !important;
    transform: translateY(-0.5em);
  }
</style>
<g id="graph0" class="graph" transform="scale(1 1) rotate(0) translate(4 305)">
<title>G</title>
<polygon fill="white" stroke="none" points="-4,4 -4,-305 357,-305 357,4 -4,4"/>
<!-- Trainer -->
<g id="node1" class="node">
<title>Trainer</title>
<polygon fill="lightblue" stroke="black" points="184.75,-300 116.25,-300 116.25,-264 184.75,-264 184.75,-300"/>
<text xml:space="preserve" text-anchor="middle" x="150.5" y="-273.95" font-family="Times,serif" font-size="14.00">Trainer</text>
</g>
<!-- Shared Filesystem -->
<g id="node2" class="node">
<title>Shared Filesystem</title>
<polygon fill="lightblue" stroke="black" points="256,-212 45,-212 45,-176 256,-176 256,-212"/>
<text xml:space="preserve" text-anchor="middle" x="150.5" y="-191.2" font-family="Times,serif" font-size="14.00">Shared Filesystem</text>
<text xml:space="preserve" text-anchor="middle" x="150.5" y="-180.7" font-family="Times,serif" font-size="14.00">(&#45;&#45;update&#45;weight&#45;disk&#45;dir)</text>
</g>
<!-- Trainer&#45;&gt;Shared Filesystem -->
<g id="edge1" class="edge">
<title>Trainer&#45;&gt;Shared Filesystem</title>
<path fill="none" stroke="black" d="M150.5,-263.6C150.5,-252.17 150.5,-236.96 150.5,-223.76"/>
<polygon fill="black" stroke="black" points="154,-223.89 150.5,-213.89 147,-223.89 154,-223.89"/>
<text xml:space="preserve" text-anchor="middle" x="251.75" y="-229.95" font-family="Times,serif" font-size="14.00">Publishes per&#45;tensor deltas</text>
</g>
<!-- Inference Engine(s) -->
<g id="node3" class="node">
<title>Inference Engine(s)</title>
<polygon fill="lightblue" stroke="black" points="229.75,-125 71.25,-125 71.25,-89 229.75,-89 229.75,-125"/>
<text xml:space="preserve" text-anchor="middle" x="150.5" y="-98.95" font-family="Times,serif" font-size="14.00">Inference Engine(s)</text>
</g>
<!-- Shared Filesystem&#45;&gt;Inference Engine(s) -->
<g id="edge2" class="edge">
<title>Shared Filesystem&#45;&gt;Inference Engine(s)</title>
<path fill="none" stroke="black" d="M150.5,-175.8C150.5,-164.58 150.5,-149.67 150.5,-136.69"/>
<polygon fill="black" stroke="black" points="154,-136.98 150.5,-126.98 147,-136.98 154,-136.98"/>
<text xml:space="preserve" text-anchor="middle" x="195.5" y="-142.95" font-family="Times,serif" font-size="14.00">Reads deltas</text>
</g>
<!-- Host&#45;Local Checkpoint -->
<g id="node4" class="node">
<title>Host&#45;Local Checkpoint</title>
<polygon fill="lightblue" stroke="black" points="301,-37 0,-37 0,-1 301,-1 301,-37"/>
<text xml:space="preserve" text-anchor="middle" x="150.5" y="-16.2" font-family="Times,serif" font-size="14.00">Host&#45;Local Checkpoint</text>
<text xml:space="preserve" text-anchor="middle" x="150.5" y="-5.7" font-family="Times,serif" font-size="14.00">(&#45;&#45;update&#45;weight&#45;local&#45;checkpoint&#45;dir)</text>
</g>
<!-- Inference Engine(s)&#45;&gt;Host&#45;Local Checkpoint -->
<g id="edge3" class="edge">
<title>Inference Engine(s)&#45;&gt;Host&#45;Local Checkpoint</title>
<path fill="none" stroke="black" d="M98.4,-88.52C89.88,-83.33 82.16,-76.7 77,-68.25 70.97,-58.38 74.95,-50.12 83.55,-43.39"/>
<polygon fill="black" stroke="black" points="85.16,-46.51 91.74,-38.21 81.42,-40.59 85.16,-46.51"/>
<text xml:space="preserve" text-anchor="middle" x="140.75" y="-54.95" font-family="Times,serif" font-size="14.00">Applies deltas to</text>
</g>
<!-- Inference Engine(s)&#45;&gt;Host&#45;Local Checkpoint -->
<g id="edge4" class="edge">
<title>Inference Engine(s)&#45;&gt;Host&#45;Local Checkpoint</title>
<path fill="none" stroke="black" d="M185.98,-88.51C193.41,-83.1 200.27,-76.37 204.5,-68.25 209.15,-59.33 205.61,-51.26 198.55,-44.4"/>
<polygon fill="black" stroke="black" points="200.94,-41.82 190.92,-38.37 196.6,-47.32 200.94,-41.82"/>
<text xml:space="preserve" text-anchor="middle" x="251.6" y="-54.95" font-family="Times,serif" font-size="14.00">Reloads from</text>
</g>
</g>
</svg>
