<?xml version="1.0" encoding="UTF-8" standalone="no"?>
<!DOCTYPE svg PUBLIC "-//W3C//DTD SVG 1.1//EN"
 "http://www.w3.org/Graphics/SVG/1.1/DTD/svg11.dtd">
<!-- Generated by graphviz version 2.44.1 (20201121.0304)
 -->
<!-- Title: G Pages: 1 -->
<svg width="752pt" height="630pt"
 viewBox="0.00 0.00 752.00 630.00" xmlns="http://www.w3.org/2000/svg" xmlns:xlink="http://www.w3.org/1999/xlink"><style>
  * {
    fill: transparent !important;
    stroke: rgb(255, 255, 255) !important;
    stroke-width: 1 !important;
  }
  polygon:not(.cluster *, .node *, .edge *, text) {
    stroke: transparent !important;
  }
  text {
    font-size: 10px !important;
    font-family: monospace !important;
    fill: rgb(255, 255, 255) !important;
    stroke: transparent !important;
    transform: translateY(-0.5em);
  }
</style>
<g id="graph0" class="graph" transform="scale(1 1) rotate(0) translate(4 625.75)">
<title>G</title>
<polygon fill="white" stroke="none" points="-4,4 -4,-625.75 748.25,-625.75 748.25,4 -4,4"/>
<!-- CLI Arguments -->
<g id="node1" class="node">
<title>CLI Arguments</title>
<polygon fill="lightblue" stroke="black" points="621.75,-615 395.75,-615 395.75,-579 621.75,-579 621.75,-615"/>
<text xml:space="preserve" text-anchor="middle" x="508.75" y="-588.95" font-family="Times,serif" font-size="14.00">CLI Arguments (arguments.py)</text>
</g>
<!-- Deployment Orchestration -->
<g id="node2" class="node">
<title>Deployment Orchestration</title>
<polygon fill="lightblue" stroke="black" points="506.75,-500 190.75,-500 190.75,-464 506.75,-464 506.75,-500"/>
<text xml:space="preserve" text-anchor="middle" x="348.75" y="-473.95" font-family="Times,serif" font-size="14.00">Deployment Orchestration (deployment.py)</text>
</g>
<!-- CLI Arguments&#45;&gt;Deployment Orchestration -->
<g id="edge1" class="edge">
<title>CLI Arguments&#45;&gt;Deployment Orchestration</title>
<path fill="none" stroke="black" d="M484.1,-578.59C456.97,-559.43 413.18,-528.5 382.79,-507.04"/>
<polygon fill="black" stroke="black" points="384.85,-504.21 374.66,-501.3 380.81,-509.93 384.85,-504.21"/>
<text xml:space="preserve" text-anchor="middle" x="471.05" y="-531.95" font-family="Times,serif" font-size="14.00">Configures</text>
</g>
<!-- SGLangEngine (Ray Actor) -->
<g id="node3" class="node">
<title>SGLangEngine (Ray Actor)</title>
<polygon fill="lightblue" stroke="black" points="521,-157 272.5,-157 272.5,-121 521,-121 521,-157"/>
<text xml:space="preserve" text-anchor="middle" x="396.75" y="-130.95" font-family="Times,serif" font-size="14.00">SGLangEngine (sglang_engine.py)</text>
</g>
<!-- CLI Arguments&#45;&gt;SGLangEngine (Ray Actor) -->
<g id="edge2" class="edge">
<title>CLI Arguments&#45;&gt;SGLangEngine (Ray Actor)</title>
<path fill="none" stroke="black" d="M536.4,-578.67C563.82,-559.11 601.75,-524.54 601.75,-483 601.75,-483 601.75,-483 601.75,-253 601.75,-204.64 557.45,-176.82 510.04,-160.9"/>
<polygon fill="black" stroke="black" points="511.28,-157.62 500.69,-157.94 509.17,-164.29 511.28,-157.62"/>
<text xml:space="preserve" text-anchor="middle" x="673" y="-359.95" font-family="Times,serif" font-size="14.00">Passes initial args</text>
</g>
<!-- SGLang Router -->
<g id="node4" class="node">
<title>SGLang Router</title>
<polygon fill="lightblue" stroke="black" points="233.5,-43 0,-43 0,-7 233.5,-7 233.5,-43"/>
<text xml:space="preserve" text-anchor="middle" x="116.75" y="-16.95" font-family="Times,serif" font-size="14.00">SGLang Router (sglang_router)</text>
</g>
<!-- Deployment Orchestration&#45;&gt;SGLang Router -->
<g id="edge3" class="edge">
<title>Deployment Orchestration&#45;&gt;SGLang Router</title>
<path fill="none" stroke="black" d="M191.4,-463.58C139.95,-448.4 95.75,-420.4 95.75,-369 95.75,-369 95.75,-369 95.75,-138 95.75,-109.16 102.56,-76.84 108.43,-54.36"/>
<polygon fill="black" stroke="black" points="111.8,-55.3 111.05,-44.73 105.04,-53.46 111.8,-55.3"/>
<text xml:space="preserve" text-anchor="middle" x="148.25" y="-245.95" font-family="Times,serif" font-size="14.00">Starts/Manages</text>
</g>
<!-- Disaggregation Logic -->
<g id="node5" class="node">
<title>Disaggregation Logic</title>
<polygon fill="lightblue" stroke="black" points="439.75,-386 123.75,-386 123.75,-350 439.75,-350 439.75,-386"/>
<text xml:space="preserve" text-anchor="middle" x="281.75" y="-359.95" font-family="Times,serif" font-size="14.00">Disaggregation Logic (disaggregation.py)</text>
</g>
<!-- Deployment Orchestration&#45;&gt;Disaggregation Logic -->
<g id="edge4" class="edge">
<title>Deployment Orchestration&#45;&gt;Disaggregation Logic</title>
<path fill="none" stroke="black" d="M338.28,-463.5C327.46,-445.42 310.44,-416.96 297.9,-395.99"/>
<polygon fill="black" stroke="black" points="301.06,-394.46 292.92,-387.68 295.05,-398.05 301.06,-394.46"/>
<text xml:space="preserve" text-anchor="middle" x="351.01" y="-416.95" font-family="Times,serif" font-size="14.00">Delegates</text>
</g>
<!-- Server Group Management -->
<g id="node6" class="node">
<title>Server Group Management</title>
<polygon fill="lightblue" stroke="black" points="558.5,-272 235,-272 235,-236 558.5,-236 558.5,-272"/>
<text xml:space="preserve" text-anchor="middle" x="396.75" y="-245.95" font-family="Times,serif" font-size="14.00">Server Group Management (engine_group.py)</text>
</g>
<!-- Deployment Orchestration&#45;&gt;Server Group Management -->
<g id="edge5" class="edge">
<title>Deployment Orchestration&#45;&gt;Server Group Management</title>
<path fill="none" stroke="black" d="M377.27,-463.59C401.4,-447.02 434.3,-419.67 448.75,-386 462.98,-352.86 452.96,-337.97 436.75,-305.75 432.38,-297.06 426.38,-288.43 420.35,-280.82"/>
<polygon fill="black" stroke="black" points="423.15,-278.72 414.07,-273.27 417.77,-283.2 423.15,-278.72"/>
<text xml:space="preserve" text-anchor="middle" x="500.56" y="-359.95" font-family="Times,serif" font-size="14.00">Delegates to</text>
</g>
<!-- SGLangEngine (Ray Actor)&#45;&gt;SGLang Router -->
<g id="edge9" class="edge">
<title>SGLangEngine (Ray Actor)&#45;&gt;SGLang Router</title>
<path fill="none" stroke="black" d="M353,-120.5C303.79,-100.82 223.82,-68.83 170.76,-47.6"/>
<polygon fill="black" stroke="black" points="172.18,-44.4 161.6,-43.94 169.58,-50.9 172.18,-44.4"/>
<text xml:space="preserve" text-anchor="middle" x="317.65" y="-73.95" font-family="Times,serif" font-size="14.00">Registers with</text>
</g>
<!-- SGLang HTTP Server -->
<g id="node7" class="node">
<title>SGLang HTTP Server</title>
<polygon fill="lightblue" stroke="black" points="521,-43 272.5,-43 272.5,-7 521,-7 521,-43"/>
<text xml:space="preserve" text-anchor="middle" x="396.75" y="-16.95" font-family="Times,serif" font-size="14.00">SGLang HTTP Server (sglang.srt)</text>
</g>
<!-- SGLangEngine (Ray Actor)&#45;&gt;SGLang HTTP Server -->
<g id="edge8" class="edge">
<title>SGLangEngine (Ray Actor)&#45;&gt;SGLang HTTP Server</title>
<path fill="none" stroke="black" d="M396.75,-120.5C396.75,-102.91 396.75,-75.5 396.75,-54.72"/>
<polygon fill="black" stroke="black" points="400.25,-54.89 396.75,-44.89 393.25,-54.89 400.25,-54.89"/>
<text xml:space="preserve" text-anchor="middle" x="464.25" y="-73.95" font-family="Times,serif" font-size="14.00">Launches/Interacts</text>
</g>
<!-- Disaggregation Logic&#45;&gt;Server Group Management -->
<g id="edge6" class="edge">
<title>Disaggregation Logic&#45;&gt;Server Group Management</title>
<path fill="none" stroke="black" d="M299.72,-349.5C318.79,-330.92 349.11,-301.4 370.78,-280.29"/>
<polygon fill="black" stroke="black" points="373.1,-282.92 377.82,-273.43 368.22,-277.9 373.1,-282.92"/>
<text xml:space="preserve" text-anchor="middle" x="387.7" y="-302.95" font-family="Times,serif" font-size="14.00">Orchestrates</text>
</g>
<!-- Server Group Management&#45;&gt;SGLangEngine (Ray Actor) -->
<g id="edge7" class="edge">
<title>Server Group Management&#45;&gt;SGLangEngine (Ray Actor)</title>
<path fill="none" stroke="black" d="M396.75,-235.84C396.75,-218 396.75,-189.78 396.75,-168.57"/>
<polygon fill="black" stroke="black" points="400.25,-168.84 396.75,-158.84 393.25,-168.84 400.25,-168.84"/>
<text xml:space="preserve" text-anchor="middle" x="449.25" y="-188.95" font-family="Times,serif" font-size="14.00">Spawns/Manages</text>
</g>
</g>
</svg>
