<?xml version="1.0" encoding="UTF-8" standalone="no"?>
<!DOCTYPE svg PUBLIC "-//W3C//DTD SVG 1.1//EN"
 "http://www.w3.org/Graphics/SVG/1.1/DTD/svg11.dtd">
<!-- Generated by graphviz version 2.44.1 (20201121.0304)
 -->
<!-- Title: G Pages: 1 -->
<svg width="388pt" height="388pt"
 viewBox="0.00 0.00 388.00 388.00" xmlns="http://www.w3.org/2000/svg" xmlns:xlink="http://www.w3.org/1999/xlink"><style>
  * {
    fill: transparent !important;
    stroke: rgb(255, 255, 255) !important;
    stroke-width: 1 !important;
  }
  polygon:not(.cluster *, .node *, .edge *, text) {
    stroke: transparent !important;
  }
  text {
    font-size: 10px !important;
    font-family: monospace !important;
    fill: rgb(255, 255, 255) !important;
    stroke: transparent !important;
    transform: translateY(-0.5em);
  }
</style>
<g id="graph0" class="graph" transform="scale(1 1) rotate(0) translate(4 384.25)">
<title>G</title>
<polygon fill="white" stroke="none" points="-4,4 -4,-384.25 384.25,-384.25 384.25,4 -4,4"/>
<!-- Input Trace Files -->
<g id="node1" class="node">
<title>Input Trace Files</title>
<polygon fill="lightblue" stroke="black" points="195.75,-380 29.75,-380 29.75,-344 195.75,-344 195.75,-380"/>
<text xml:space="preserve" text-anchor="middle" x="112.75" y="-353.95" font-family="Helvetica,sans-Serif" font-size="14.00">.trace.json.gz Files</text>
</g>
<!-- Trace Analysis Core -->
<g id="node2" class="node">
<title>Trace Analysis Core</title>
<polygon fill="lightblue" stroke="black" points="192,-295 33.5,-295 33.5,-259 192,-259 192,-295"/>
<text xml:space="preserve" text-anchor="middle" x="112.75" y="-268.95" font-family="Helvetica,sans-Serif" font-size="14.00">analyze_trace(data)</text>
</g>
<!-- Input Trace Files&#45;&gt;Trace Analysis Core -->
<g id="edge1" class="edge">
<title>Input Trace Files&#45;&gt;Trace Analysis Core</title>
<path fill="none" stroke="#333333" d="M112.75,-343.8C112.75,-333.08 112.75,-319.01 112.75,-306.64"/>
<polygon fill="#333333" stroke="#333333" points="116.25,-306.97 112.75,-296.97 109.25,-306.97 116.25,-306.97"/>
<text xml:space="preserve" text-anchor="middle" x="165.25" y="-310.95" font-family="Times,serif" font-size="14.00">Loads &amp; Parses</text>
</g>
<!-- Kernel Classifier -->
<g id="node3" class="node">
<title>Kernel Classifier</title>
<polygon fill="lightblue" stroke="black" points="173.5,-210 0,-210 0,-174 173.5,-174 173.5,-210"/>
<text xml:space="preserve" text-anchor="middle" x="86.75" y="-183.95" font-family="Helvetica,sans-Serif" font-size="14.00">classify_kernel(name)</text>
</g>
<!-- Trace Analysis Core&#45;&gt;Kernel Classifier -->
<g id="edge2" class="edge">
<title>Trace Analysis Core&#45;&gt;Kernel Classifier</title>
<path fill="none" stroke="#333333" d="M107.36,-258.8C103.97,-247.97 99.51,-233.72 95.6,-221.26"/>
<polygon fill="#333333" stroke="#333333" points="99,-220.4 92.67,-211.91 92.32,-222.49 99,-220.4"/>
<text xml:space="preserve" text-anchor="middle" x="115.53" y="-225.95" font-family="Times,serif" font-size="14.00">Uses</text>
</g>
<!-- Analysis Results -->
<g id="node4" class="node">
<title>Analysis Results</title>
<polygon fill="lightblue" stroke="black" points="357.75,-210 191.75,-210 191.75,-174 357.75,-174 357.75,-210"/>
<text xml:space="preserve" text-anchor="middle" x="274.75" y="-183.95" font-family="Helvetica,sans-Serif" font-size="14.00">TraceAnalysis Object</text>
</g>
<!-- Trace Analysis Core&#45;&gt;Analysis Results -->
<g id="edge3" class="edge">
<title>Trace Analysis Core&#45;&gt;Analysis Results</title>
<path fill="none" stroke="#333333" d="M146.71,-258.6C171.12,-246.09 204.25,-229.12 230.69,-215.57"/>
<polygon fill="#333333" stroke="#333333" points="232.18,-218.74 239.49,-211.07 228.99,-212.51 232.18,-218.74"/>
<text xml:space="preserve" text-anchor="middle" x="237.2" y="-225.95" font-family="Times,serif" font-size="14.00">Generates</text>
</g>
<!-- Report Generation -->
<g id="node5" class="node">
<title>Report Generation</title>
<polygon fill="lightblue" stroke="black" points="380.25,-125 169.25,-125 169.25,-89 380.25,-89 380.25,-125"/>
<text xml:space="preserve" text-anchor="middle" x="274.75" y="-104.2" font-family="Helvetica,sans-Serif" font-size="14.00">print_analysis()</text>
<text xml:space="preserve" text-anchor="middle" x="274.75" y="-93.7" font-family="Helvetica,sans-Serif" font-size="14.00">print_cross_rank_summary()</text>
</g>
<!-- Analysis Results&#45;&gt;Report Generation -->
<g id="edge4" class="edge">
<title>Analysis Results&#45;&gt;Report Generation</title>
<path fill="none" stroke="#333333" d="M274.75,-173.8C274.75,-163.08 274.75,-149.01 274.75,-136.64"/>
<polygon fill="#333333" stroke="#333333" points="278.25,-136.97 274.75,-126.97 271.25,-136.97 278.25,-136.97"/>
<text xml:space="preserve" text-anchor="middle" x="293.5" y="-140.95" font-family="Times,serif" font-size="14.00">Feeds</text>
</g>
<!-- Key Performance Metrics -->
<g id="node6" class="node">
<title>Key Performance Metrics</title>
<polygon fill="lightblue" stroke="black" points="354,-39.75 195.5,-39.75 195.5,-0.25 354,-0.25 354,-39.75"/>
<text xml:space="preserve" text-anchor="middle" x="274.75" y="-22.45" font-family="Helvetica,sans-Serif" font-size="14.00">GPU Utilization</text>
<text xml:space="preserve" text-anchor="middle" x="274.75" y="-11.95" font-family="Helvetica,sans-Serif" font-size="14.00">CUDA Graph Launches</text>
<text xml:space="preserve" text-anchor="middle" x="274.75" y="-1.45" font-family="Helvetica,sans-Serif" font-size="14.00">Idle Gaps</text>
</g>
<!-- Report Generation&#45;&gt;Key Performance Metrics -->
<g id="edge5" class="edge">
<title>Report Generation&#45;&gt;Key Performance Metrics</title>
<path fill="none" stroke="#333333" d="M274.75,-88.8C274.75,-78.06 274.75,-63.94 274.75,-51.37"/>
<polygon fill="#333333" stroke="#333333" points="278.25,-51.46 274.75,-41.46 271.25,-51.46 278.25,-51.46"/>
<text xml:space="preserve" text-anchor="middle" x="312.25" y="-56.95" font-family="Times,serif" font-size="14.00">Highlights</text>
</g>
</g>
</svg>
