<?xml version="1.0" encoding="UTF-8" standalone="no"?>
<!DOCTYPE svg PUBLIC "-//W3C//DTD SVG 1.1//EN"
 "http://www.w3.org/Graphics/SVG/1.1/DTD/svg11.dtd">
<!-- Generated by graphviz version 2.44.1 (20201121.0304)
 -->
<!-- Title: G Pages: 1 -->
<svg width="508pt" height="508pt"
 viewBox="0.00 0.00 508.00 508.00" xmlns="http://www.w3.org/2000/svg" xmlns:xlink="http://www.w3.org/1999/xlink"><style>
  * {
    fill: transparent !important;
    stroke: rgb(255, 255, 255) !important;
    stroke-width: 1 !important;
  }
  polygon:not(.cluster *, .node *, .edge *, text) {
    stroke: transparent !important;
  }
  text {
    font-size: 10px !important;
    font-family: monospace !important;
    fill: rgb(255, 255, 255) !important;
    stroke: transparent !important;
    transform: translateY(-0.5em);
  }
</style>
<g id="graph0" class="graph" transform="scale(1 1) rotate(0) translate(4 504)">
<title>G</title>
<polygon fill="white" stroke="none" points="-4,4 -4,-504 504,-504 504,4 -4,4"/>
<!-- Hugging Face Model (Input) -->
<g id="node1" class="node">
<title>Hugging Face Model (Input)</title>
<polygon fill="lightblue" stroke="black" points="297.5,-485 86.5,-485 86.5,-449 297.5,-449 297.5,-485"/>
<text xml:space="preserve" text-anchor="middle" x="192" y="-458.95" font-family="Times,serif" font-size="14.00">Hugging Face Model (Input)</text>
</g>
<!-- Distributed Conversion Process -->
<g id="node2" class="node">
<title>Distributed Conversion Process</title>
<polygon fill="lightblue" stroke="black" points="312.5,-352 71.5,-352 71.5,-316 312.5,-316 312.5,-352"/>
<text xml:space="preserve" text-anchor="middle" x="192" y="-325.95" font-family="Times,serif" font-size="14.00">Distributed Conversion Process</text>
</g>
<!-- Hugging Face Model (Input)&#45;&gt;Distributed Conversion Process -->
<g id="edge1" class="edge">
<title>Hugging Face Model (Input)&#45;&gt;Distributed Conversion Process</title>
<path fill="none" stroke="black" d="M192,-448.6C192,-426.97 192,-389.75 192,-363.83"/>
<polygon fill="black" stroke="black" points="195.5,-363.98 192,-353.98 188.5,-363.98 195.5,-363.98"/>
</g>
<!-- ROCm/HIP Compatibility Patch -->
<g id="node3" class="node">
<title>ROCm/HIP Compatibility Patch</title>
<polygon fill="lightblue" stroke="black" points="226,-201 0,-201 0,-165 226,-165 226,-201"/>
<text xml:space="preserve" text-anchor="middle" x="113" y="-174.95" font-family="Times,serif" font-size="14.00">ROCm/HIP Compatibility Patch</text>
</g>
<!-- Distributed Conversion Process&#45;&gt;ROCm/HIP Compatibility Patch -->
<g id="edge2" class="edge">
<title>Distributed Conversion Process&#45;&gt;ROCm/HIP Compatibility Patch</title>
<path fill="none" stroke="black" d="M182.78,-315.62C169.17,-289.93 143.55,-241.62 127.43,-211.21"/>
<polygon fill="black" stroke="black" points="130.64,-209.81 122.87,-202.61 124.46,-213.08 130.64,-209.81"/>
<text xml:space="preserve" text-anchor="middle" x="226.12" y="-250.95" font-family="Times,serif" font-size="14.00">Applies if ROCm/HIP</text>
</g>
<!-- Megatron&#45;LM Model Construction -->
<g id="node4" class="node">
<title>Megatron&#45;LM Model Construction</title>
<polygon fill="lightblue" stroke="black" points="500,-201 244,-201 244,-165 500,-165 500,-201"/>
<text xml:space="preserve" text-anchor="middle" x="372" y="-180.2" font-family="Times,serif" font-size="14.00">Megatron&#45;LM Model</text>
<text xml:space="preserve" text-anchor="middle" x="372" y="-169.7" font-family="Times,serif" font-size="14.00">Construction &amp; Parameter Mapping</text>
</g>
<!-- Distributed Conversion Process&#45;&gt;Megatron&#45;LM Model Construction -->
<g id="edge3" class="edge">
<title>Distributed Conversion Process&#45;&gt;Megatron&#45;LM Model Construction</title>
<path fill="none" stroke="black" d="M224.64,-315.67C247.21,-302.93 277.31,-284.39 301,-264.25 320.13,-247.98 338.83,-226.56 352.23,-209.93"/>
<polygon fill="black" stroke="black" points="354.7,-212.46 358.16,-202.45 349.21,-208.11 354.7,-212.46"/>
</g>
<!-- Megatron&#45;LM Checkpoint (Output) -->
<g id="node5" class="node">
<title>Megatron&#45;LM Checkpoint (Output)</title>
<polygon fill="lightblue" stroke="black" points="496.25,-51 247.75,-51 247.75,-15 496.25,-15 496.25,-51"/>
<text xml:space="preserve" text-anchor="middle" x="372" y="-24.95" font-family="Times,serif" font-size="14.00">Megatron&#45;LM Checkpoint (Output)</text>
</g>
<!-- Megatron&#45;LM Model Construction&#45;&gt;Megatron&#45;LM Checkpoint (Output) -->
<g id="edge4" class="edge">
<title>Megatron&#45;LM Model Construction&#45;&gt;Megatron&#45;LM Checkpoint (Output)</title>
<path fill="none" stroke="black" d="M372,-164.73C372,-139.67 372,-92.9 372,-62.63"/>
<polygon fill="black" stroke="black" points="375.5,-62.67 372,-52.67 368.5,-62.67 375.5,-62.67"/>
<text xml:space="preserve" text-anchor="middle" x="402" y="-99.95" font-family="Times,serif" font-size="14.00">Saves as</text>
</g>
</g>
</svg>
