<?xml version="1.0" encoding="UTF-8" standalone="no"?>
<!DOCTYPE svg PUBLIC "-//W3C//DTD SVG 1.1//EN"
 "http://www.w3.org/Graphics/SVG/1.1/DTD/svg11.dtd">
<!-- Generated by graphviz version 2.44.1 (20201121.0304)
 -->
<!-- Title: G Pages: 1 -->
<svg width="1369pt" height="1331pt"
 viewBox="0.00 0.00 1369.00 1331.00" xmlns="http://www.w3.org/2000/svg" xmlns:xlink="http://www.w3.org/1999/xlink"><style>
  * {
    fill: transparent !important;
    stroke: rgb(255, 255, 255) !important;
    stroke-width: 1 !important;
  }
  polygon:not(.cluster *, .node *, .edge *, text) {
    stroke: transparent !important;
  }
  text {
    font-size: 10px !important;
    font-family: monospace !important;
    fill: rgb(255, 255, 255) !important;
    stroke: transparent !important;
    transform: translateY(-0.5em);
  }
</style>
<g id="graph0" class="graph" transform="scale(1 1) rotate(0) translate(4 1327.25)">
<title>G</title>
<polygon fill="white" stroke="none" points="-4,4 -4,-1327.25 1364.63,-1327.25 1364.63,4 -4,4"/>
<!-- Slime Orchestration -->
<g id="node1" class="node">
<title>Slime Orchestration</title>
<polygon fill="lightblue" stroke="black" points="916.88,-1257 675.88,-1257 675.88,-1221 916.88,-1221 916.88,-1257"/>
<text xml:space="preserve" text-anchor="middle" x="796.38" y="-1230.95" font-family="Times,serif" font-size="14.00">Slime Orchestration (actor.py)</text>
</g>
<!-- Megatron Core -->
<g id="node2" class="node">
<title>Megatron Core</title>
<polygon fill="lightblue" stroke="black" points="1225.13,-487 901.63,-487 901.63,-451 1225.13,-451 1225.13,-487"/>
<text xml:space="preserve" text-anchor="middle" x="1063.38" y="-460.95" font-family="Times,serif" font-size="14.00">Megatron Core (mpu, training.global_vars)</text>
</g>
<!-- Slime Orchestration&#45;&gt;Megatron Core -->
<g id="edge1" class="edge">
<title>Slime Orchestration&#45;&gt;Megatron Core</title>
<path fill="none" stroke="black" d="M825.53,-1220.66C899.21,-1174.91 1091.91,-1042.59 1161.38,-872 1216.41,-736.86 1122.41,-563.07 1081.23,-497.06"/>
<polygon fill="black" stroke="black" points="1084.23,-495.26 1075.92,-488.69 1078.32,-499.01 1084.23,-495.26"/>
<text xml:space="preserve" text-anchor="middle" x="1198.46" y="-845.95" font-family="Times,serif" font-size="14.00">Manages</text>
</g>
<!-- Memory/Distributed Utils -->
<g id="node3" class="node">
<title>Memory/Distributed Utils</title>
<polygon fill="lightblue" stroke="black" points="503.38,-102 37.38,-102 37.38,-66 503.38,-66 503.38,-102"/>
<text xml:space="preserve" text-anchor="middle" x="270.38" y="-75.95" font-family="Times,serif" font-size="14.00">Memory &amp; Distributed Utils (memory_utils, distributed_utils)</text>
</g>
<!-- Slime Orchestration&#45;&gt;Memory/Distributed Utils -->
<g id="edge2" class="edge">
<title>Slime Orchestration&#45;&gt;Memory/Distributed Utils</title>
<path fill="none" stroke="black" d="M684.26,-1220.5C512.91,-1187.06 191.09,-1096.3 51.38,-872 -113.68,-607.01 167.05,-215.84 248.96,-111.42"/>
<polygon fill="black" stroke="black" points="251.63,-113.69 255.09,-103.68 246.14,-109.34 251.63,-113.69"/>
<text xml:space="preserve" text-anchor="middle" x="34.46" y="-653.95" font-family="Times,serif" font-size="14.00">Leverages</text>
</g>
<!-- Numerical Alignment -->
<g id="node4" class="node">
<title>Numerical Alignment</title>
<polygon fill="lightblue" stroke="black" points="1151.88,-872 790.88,-872 790.88,-836 1151.88,-836 1151.88,-872"/>
<text xml:space="preserve" text-anchor="middle" x="971.38" y="-845.95" font-family="Times,serif" font-size="14.00">Numerical Alignment (DeepGEMM, Triton Kernels)</text>
</g>
<!-- Slime Orchestration&#45;&gt;Numerical Alignment -->
<g id="edge3" class="edge">
<title>Slime Orchestration&#45;&gt;Numerical Alignment</title>
<path fill="none" stroke="black" d="M804.35,-1220.55C832.15,-1159.72 924.9,-956.73 958.81,-882.49"/>
<polygon fill="black" stroke="black" points="961.96,-884.04 962.93,-873.49 955.59,-881.13 961.96,-884.04"/>
<text xml:space="preserve" text-anchor="middle" x="932.63" y="-1038.95" font-family="Times,serif" font-size="14.00">Applies hooks</text>
</g>
<!-- Checkpoint/HF Conversion -->
<g id="node5" class="node">
<title>Checkpoint/HF Conversion</title>
<polygon fill="lightblue" stroke="black" points="866.63,-487 378.13,-487 378.13,-451 866.63,-451 866.63,-487"/>
<text xml:space="preserve" text-anchor="middle" x="622.38" y="-460.95" font-family="Times,serif" font-size="14.00">Checkpointing &amp; HF Conversion (checkpoint, hf_checkpoint_saver)</text>
</g>
<!-- Slime Orchestration&#45;&gt;Checkpoint/HF Conversion -->
<g id="edge4" class="edge">
<title>Slime Orchestration&#45;&gt;Checkpoint/HF Conversion</title>
<path fill="none" stroke="black" d="M785.53,-1220.61C754.36,-1169.53 664.72,-1014.6 632.38,-872 601.26,-734.84 612.93,-564.6 619.31,-498.29"/>
<polygon fill="black" stroke="black" points="622.76,-498.95 620.28,-488.65 615.8,-498.25 622.76,-498.95"/>
<text xml:space="preserve" text-anchor="middle" x="707.38" y="-845.95" font-family="Times,serif" font-size="14.00">Controls saves/loads</text>
</g>
<!-- Weight Update -->
<g id="node6" class="node">
<title>Weight Update</title>
<polygon fill="lightblue" stroke="black" points="586.38,-872 60.38,-872 60.38,-836 586.38,-836 586.38,-872"/>
<text xml:space="preserve" text-anchor="middle" x="323.38" y="-845.95" font-family="Times,serif" font-size="14.00">Weight Update (update_weight.common, update_weight_from_distributed)</text>
</g>
<!-- Slime Orchestration&#45;&gt;Weight Update -->
<g id="edge5" class="edge">
<title>Slime Orchestration&#45;&gt;Weight Update</title>
<path fill="none" stroke="black" d="M767.6,-1220.52C716.89,-1189.24 609.12,-1120.54 525.88,-1052.25 456.74,-995.53 383.43,-919.62 346.91,-880.58"/>
<polygon fill="black" stroke="black" points="349.69,-878.42 340.31,-873.48 344.56,-883.19 349.69,-878.42"/>
<text xml:space="preserve" text-anchor="middle" x="567.13" y="-1038.95" font-family="Times,serif" font-size="14.00">Coordinates</text>
</g>
<!-- Data Handling -->
<g id="node7" class="node">
<title>Data Handling</title>
<polygon fill="lightblue" stroke="black" points="1360.63,-102 1052.13,-102 1052.13,-66 1360.63,-66 1360.63,-102"/>
<text xml:space="preserve" text-anchor="middle" x="1206.38" y="-75.95" font-family="Times,serif" font-size="14.00">Data Handling (data.py, routing_replay)</text>
</g>
<!-- Slime Orchestration&#45;&gt;Data Handling -->
<g id="edge6" class="edge">
<title>Slime Orchestration&#45;&gt;Data Handling</title>
<path fill="none" stroke="black" d="M835.85,-1220.53C927.54,-1177.35 1152.84,-1055.63 1228.38,-872 1341.9,-596 1245.78,-218.33 1215.04,-113.17"/>
<polygon fill="black" stroke="black" points="1218.43,-112.29 1212.22,-103.7 1211.72,-114.28 1218.43,-112.29"/>
<text xml:space="preserve" text-anchor="middle" x="1311.74" y="-653.95" font-family="Times,serif" font-size="14.00">Processes</text>
</g>
<!-- Megatron Core&#45;&gt;Memory/Distributed Utils -->
<g id="edge7" class="edge">
<title>Megatron Core&#45;&gt;Memory/Distributed Utils</title>
<path fill="none" stroke="black" d="M1027.24,-450.55C898.21,-388.23 460.24,-176.7 316.5,-107.28"/>
<polygon fill="black" stroke="black" points="318.16,-104.19 307.63,-102.99 315.12,-110.49 318.16,-104.19"/>
<text xml:space="preserve" text-anchor="middle" x="700.63" y="-268.95" font-family="Times,serif" font-size="14.00">Interacts</text>
</g>
<!-- Megatron Core&#45;&gt;Data Handling -->
<g id="edge8" class="edge">
<title>Megatron Core&#45;&gt;Data Handling</title>
<path fill="none" stroke="black" d="M1069.89,-450.55C1092.6,-389.72 1168.39,-186.73 1196.11,-112.49"/>
<polygon fill="black" stroke="black" points="1199.24,-114.13 1199.46,-103.53 1192.68,-111.68 1199.24,-114.13"/>
<text xml:space="preserve" text-anchor="middle" x="1149.88" y="-268.95" font-family="Times,serif" font-size="14.00">Uses</text>
</g>
<!-- Numerical Alignment&#45;&gt;Megatron Core -->
<g id="edge9" class="edge">
<title>Numerical Alignment&#45;&gt;Megatron Core</title>
<path fill="none" stroke="black" d="M975.57,-835.55C990.15,-774.85 1038.74,-572.56 1056.66,-497.95"/>
<polygon fill="black" stroke="black" points="1059.98,-499.13 1058.91,-488.59 1053.17,-497.49 1059.98,-499.13"/>
<text xml:space="preserve" text-anchor="middle" x="1043.63" y="-653.95" font-family="Times,serif" font-size="14.00">Patches</text>
</g>
<!-- Weight Update&#45;&gt;Memory/Distributed Utils -->
<g id="edge11" class="edge">
<title>Weight Update&#45;&gt;Memory/Distributed Utils</title>
<path fill="none" stroke="black" d="M320.67,-835.53C312.64,-782.99 288.96,-621.7 279.38,-487 269.44,-347.33 269.55,-179.75 270.06,-113.73"/>
<polygon fill="black" stroke="black" points="273.56,-113.81 270.15,-103.78 266.56,-113.75 273.56,-113.81"/>
<text xml:space="preserve" text-anchor="middle" x="324.38" y="-460.95" font-family="Times,serif" font-size="14.00">Communicates</text>
</g>
<!-- Weight Update&#45;&gt;Checkpoint/HF Conversion -->
<g id="edge10" class="edge">
<title>Weight Update&#45;&gt;Checkpoint/HF Conversion</title>
<path fill="none" stroke="black" d="M337,-835.55C384.78,-774.35 544.92,-569.22 601.97,-496.14"/>
<polygon fill="black" stroke="black" points="604.69,-498.35 608.08,-488.31 599.17,-494.04 604.69,-498.35"/>
<text xml:space="preserve" text-anchor="middle" x="532.88" y="-653.95" font-family="Times,serif" font-size="14.00">Prepares weights</text>
</g>
</g>
</svg>
