<?xml version="1.0" encoding="UTF-8" standalone="no"?>
<!DOCTYPE svg PUBLIC "-//W3C//DTD SVG 1.1//EN"
 "http://www.w3.org/Graphics/SVG/1.1/DTD/svg11.dtd">
<!-- Generated by graphviz version 2.44.1 (20201121.0304)
 -->
<!-- Title: G Pages: 1 -->
<svg width="404pt" height="404pt"
 viewBox="0.00 0.00 404.00 404.00" xmlns="http://www.w3.org/2000/svg" xmlns:xlink="http://www.w3.org/1999/xlink"><style>
  * {
    fill: transparent !important;
    stroke: rgb(255, 255, 255) !important;
    stroke-width: 1 !important;
  }
  polygon:not(.cluster *, .node *, .edge *, text) {
    stroke: transparent !important;
  }
  text {
    font-size: 10px !important;
    font-family: monospace !important;
    fill: rgb(255, 255, 255) !important;
    stroke: transparent !important;
    transform: translateY(-0.5em);
  }
</style>
<g id="graph0" class="graph" transform="scale(1 1) rotate(0) translate(4 400)">
<title>G</title>
<polygon fill="white" stroke="none" points="-4,4 -4,-400 400,-400 400,4 -4,4"/>
<!-- Pick Test Pattern &amp; Write Test Code -->
<g id="node1" class="node">
<title>Pick Test Pattern &amp; Write Test Code</title>
<polygon fill="lightblue" stroke="black" points="352.25,-396 43.75,-396 43.75,-360 352.25,-360 352.25,-396"/>
<text xml:space="preserve" text-anchor="middle" x="198" y="-375.2" font-family="Times,serif" font-size="14.00">Pick Test Pattern &amp;</text>
<text xml:space="preserve" text-anchor="middle" x="198" y="-364.7" font-family="Times,serif" font-size="14.00">Write Test Code (e.g., tests/test_*.py)</text>
</g>
<!-- Define GPU Requirements -->
<g id="node2" class="node">
<title>Define GPU Requirements</title>
<polygon fill="lightblue" stroke="black" points="292.25,-324 103.75,-324 103.75,-288 292.25,-288 292.25,-324"/>
<text xml:space="preserve" text-anchor="middle" x="198" y="-303.2" font-family="Times,serif" font-size="14.00">Define GPU Requirements</text>
<text xml:space="preserve" text-anchor="middle" x="198" y="-292.7" font-family="Times,serif" font-size="14.00">(NUM_GPUS)</text>
</g>
<!-- Pick Test Pattern &amp; Write Test Code&#45;&gt;Define GPU Requirements -->
<g id="edge1" class="edge">
<title>Pick Test Pattern &amp; Write Test Code&#45;&gt;Define GPU Requirements</title>
<path fill="none" stroke="black" d="M198,-359.7C198,-352.41 198,-343.73 198,-335.54"/>
<polygon fill="black" stroke="black" points="201.5,-335.62 198,-325.62 194.5,-335.62 201.5,-335.62"/>
</g>
<!-- Update CI Template -->
<g id="node3" class="node">
<title>Update CI Template</title>
<polygon fill="lightblue" stroke="black" points="333.5,-252 62.5,-252 62.5,-216 333.5,-216 333.5,-252"/>
<text xml:space="preserve" text-anchor="middle" x="198" y="-231.2" font-family="Times,serif" font-size="14.00">Update CI Template</text>
<text xml:space="preserve" text-anchor="middle" x="198" y="-220.7" font-family="Times,serif" font-size="14.00">(.github/workflows/pr&#45;test.yml.j2)</text>
</g>
<!-- Define GPU Requirements&#45;&gt;Update CI Template -->
<g id="edge2" class="edge">
<title>Define GPU Requirements&#45;&gt;Update CI Template</title>
<path fill="none" stroke="black" d="M198,-287.7C198,-280.41 198,-271.73 198,-263.54"/>
<polygon fill="black" stroke="black" points="201.5,-263.62 198,-253.62 194.5,-263.62 201.5,-263.62"/>
</g>
<!-- Generate Workflows -->
<g id="node4" class="node">
<title>Generate Workflows</title>
<polygon fill="lightblue" stroke="black" points="318.5,-180 77.5,-180 77.5,-144 318.5,-144 318.5,-180"/>
<text xml:space="preserve" text-anchor="middle" x="198" y="-159.2" font-family="Times,serif" font-size="14.00">Generate Workflows</text>
<text xml:space="preserve" text-anchor="middle" x="198" y="-148.7" font-family="Times,serif" font-size="14.00">(generate_github_workflows.py)</text>
</g>
<!-- Update CI Template&#45;&gt;Generate Workflows -->
<g id="edge3" class="edge">
<title>Update CI Template&#45;&gt;Generate Workflows</title>
<path fill="none" stroke="black" d="M198,-215.7C198,-208.41 198,-199.73 198,-191.54"/>
<polygon fill="black" stroke="black" points="201.5,-191.62 198,-181.62 194.5,-191.62 201.5,-191.62"/>
</g>
<!-- Local Validation -->
<g id="node5" class="node">
<title>Local Validation</title>
<polygon fill="lightblue" stroke="black" points="303.5,-108 92.5,-108 92.5,-72 303.5,-72 303.5,-108"/>
<text xml:space="preserve" text-anchor="middle" x="198" y="-87.2" font-family="Times,serif" font-size="14.00">Local Validation</text>
<text xml:space="preserve" text-anchor="middle" x="198" y="-76.7" font-family="Times,serif" font-size="14.00">(python tests/test_new.py)</text>
</g>
<!-- Generate Workflows&#45;&gt;Local Validation -->
<g id="edge4" class="edge">
<title>Generate Workflows&#45;&gt;Local Validation</title>
<path fill="none" stroke="black" d="M198,-143.7C198,-136.41 198,-127.73 198,-119.54"/>
<polygon fill="black" stroke="black" points="201.5,-119.62 198,-109.62 194.5,-119.62 201.5,-119.62"/>
</g>
<!-- Provide Verifiable PR Notes -->
<g id="node6" class="node">
<title>Provide Verifiable PR Notes</title>
<polygon fill="lightblue" stroke="black" points="273.5,-36 122.5,-36 122.5,0 273.5,0 273.5,-36"/>
<text xml:space="preserve" text-anchor="middle" x="198" y="-15.2" font-family="Times,serif" font-size="14.00">Provide Verifiable</text>
<text xml:space="preserve" text-anchor="middle" x="198" y="-4.7" font-family="Times,serif" font-size="14.00">PR Notes</text>
</g>
<!-- Local Validation&#45;&gt;Provide Verifiable PR Notes -->
<g id="edge5" class="edge">
<title>Local Validation&#45;&gt;Provide Verifiable PR Notes</title>
<path fill="none" stroke="black" d="M198,-71.7C198,-64.41 198,-55.73 198,-47.54"/>
<polygon fill="black" stroke="black" points="201.5,-47.62 198,-37.62 194.5,-47.62 201.5,-47.62"/>
</g>
</g>
</svg>
