<?xml version="1.0" encoding="UTF-8" standalone="no"?>
<!DOCTYPE svg PUBLIC "-//W3C//DTD SVG 1.1//EN"
 "http://www.w3.org/Graphics/SVG/1.1/DTD/svg11.dtd">
<!-- Generated by graphviz version 2.44.1 (20201121.0304)
 -->
<!-- Title: G Pages: 1 -->
<svg width="415pt" height="415pt"
 viewBox="0.00 0.00 415.00 415.00" xmlns="http://www.w3.org/2000/svg" xmlns:xlink="http://www.w3.org/1999/xlink"><style>
  * {
    fill: transparent !important;
    stroke: rgb(255, 255, 255) !important;
    stroke-width: 1 !important;
  }
  polygon:not(.cluster *, .node *, .edge *, text) {
    stroke: transparent !important;
  }
  text {
    font-size: 10px !important;
    font-family: monospace !important;
    fill: rgb(255, 255, 255) !important;
    stroke: transparent !important;
    transform: translateY(-0.5em);
  }
</style>
<g id="graph0" class="graph" transform="scale(1 1) rotate(0) translate(4 410.5)">
<title>G</title>
<polygon fill="white" stroke="none" points="-4,4 -4,-410.5 410.5,-410.5 410.5,4 -4,4"/>
<!-- Training Module\n(Megatron&#45;LM) -->
<g id="node1" class="node">
<title>Training Module\n(Megatron&#45;LM)</title>
<polygon fill="lightblue" stroke="black" points="128.5,-388 0,-388 0,-352 128.5,-352 128.5,-388"/>
<text xml:space="preserve" text-anchor="middle" x="64.25" y="-367.2" font-family="Times,serif" font-size="14.00">Training Module</text>
<text xml:space="preserve" text-anchor="middle" x="64.25" y="-356.7" font-family="Times,serif" font-size="14.00">(Megatron&#45;LM)</text>
</g>
<!-- Data Buffer -->
<g id="node2" class="node">
<title>Data Buffer</title>
<polygon fill="lightblue" stroke="black" points="118.5,-54 20,-54 20,-18 118.5,-18 118.5,-54"/>
<text xml:space="preserve" text-anchor="middle" x="69.25" y="-27.95" font-family="Times,serif" font-size="14.00">Data Buffer</text>
</g>
<!-- Training Module\n(Megatron&#45;LM)&#45;&gt;Data Buffer -->
<g id="edge1" class="edge">
<title>Training Module\n(Megatron&#45;LM)&#45;&gt;Data Buffer</title>
<path fill="none" stroke="black" d="M63.57,-351.75C62.38,-319.16 60.2,-246.32 61.75,-185 62.8,-143.41 65.52,-95.3 67.38,-65.51"/>
<polygon fill="black" stroke="black" points="70.85,-66.02 67.99,-55.82 63.86,-65.57 70.85,-66.02"/>
<text xml:space="preserve" text-anchor="middle" x="118" y="-194.95" font-family="Times,serif" font-size="14.00">Reads Data From</text>
</g>
<!-- Rollout Module\n(SGLang + Router) -->
<g id="node3" class="node">
<title>Rollout Module\n(SGLang + Router)</title>
<polygon fill="lightblue" stroke="black" points="327,-221 183.5,-221 183.5,-185 327,-185 327,-221"/>
<text xml:space="preserve" text-anchor="middle" x="255.25" y="-200.2" font-family="Times,serif" font-size="14.00">Rollout Module</text>
<text xml:space="preserve" text-anchor="middle" x="255.25" y="-189.7" font-family="Times,serif" font-size="14.00">(SGLang + Router)</text>
</g>
<!-- Training Module\n(Megatron&#45;LM)&#45;&gt;Rollout Module\n(SGLang + Router) -->
<g id="edge2" class="edge">
<title>Training Module\n(Megatron&#45;LM)&#45;&gt;Rollout Module\n(SGLang + Router)</title>
<path fill="none" stroke="black" d="M65.87,-351.6C68.5,-332.42 75.31,-301.63 92.75,-281.75 115.63,-255.67 149.19,-237.6 179.88,-225.48"/>
<polygon fill="black" stroke="black" points="181.05,-228.78 189.18,-221.98 178.58,-222.23 181.05,-228.78"/>
<text xml:space="preserve" text-anchor="middle" x="179" y="-278.95" font-family="Times,serif" font-size="14.00">Synchronizes Parameters</text>
</g>
<!-- Rollout Module\n(SGLang + Router)&#45;&gt;Data Buffer -->
<g id="edge3" class="edge">
<title>Rollout Module\n(SGLang + Router)&#45;&gt;Data Buffer</title>
<path fill="none" stroke="black" d="M235.7,-184.65C202.62,-155.32 135.53,-95.8 97.4,-61.97"/>
<polygon fill="black" stroke="black" points="99.76,-59.38 89.95,-55.37 95.11,-64.62 99.76,-59.38"/>
<text xml:space="preserve" text-anchor="middle" x="254.08" y="-111.95" font-family="Times,serif" font-size="14.00">Generates &amp; Stores Data</text>
</g>
<!-- Advanced Configs -->
<g id="node4" class="node">
<title>Advanced Configs</title>
<polygon fill="lightblue" stroke="black" points="406.5,-388 158,-388 158,-352 406.5,-352 406.5,-388"/>
<text xml:space="preserve" text-anchor="middle" x="282.25" y="-367.2" font-family="Times,serif" font-size="14.00">Advanced Configs</text>
<text xml:space="preserve" text-anchor="middle" x="282.25" y="-356.7" font-family="Times,serif" font-size="14.00">(SGLang Config, PD, Delta Sync)</text>
</g>
<!-- Advanced Configs&#45;&gt;Rollout Module\n(SGLang + Router) -->
<g id="edge4" class="edge">
<title>Advanced Configs&#45;&gt;Rollout Module\n(SGLang + Router)</title>
<path fill="none" stroke="black" d="M279.41,-351.65C274.77,-323.31 265.52,-266.78 259.91,-232.48"/>
<polygon fill="black" stroke="black" points="263.4,-232.16 258.34,-222.85 256.5,-233.29 263.4,-232.16"/>
<text xml:space="preserve" text-anchor="middle" x="307.06" y="-278.95" font-family="Times,serif" font-size="14.00">Configures</text>
</g>
</g>
</svg>
