<?xml version="1.0" encoding="UTF-8" standalone="no"?>
<!DOCTYPE svg PUBLIC "-//W3C//DTD SVG 1.1//EN"
 "http://www.w3.org/Graphics/SVG/1.1/DTD/svg11.dtd">
<!-- Generated by graphviz version 2.44.1 (20201121.0304)
 -->
<!-- Title: G Pages: 1 -->
<svg width="908pt" height="769pt"
 viewBox="0.00 0.00 908.00 769.00" xmlns="http://www.w3.org/2000/svg" xmlns:xlink="http://www.w3.org/1999/xlink"><style>
  * {
    fill: transparent !important;
    stroke: rgb(255, 255, 255) !important;
    stroke-width: 1 !important;
  }
  polygon:not(.cluster *, .node *, .edge *, text) {
    stroke: transparent !important;
  }
  text {
    font-size: 10px !important;
    font-family: monospace !important;
    fill: rgb(255, 255, 255) !important;
    stroke: transparent !important;
    transform: translateY(-0.5em);
  }
</style>
<g id="graph0" class="graph" transform="scale(1 1) rotate(0) translate(4 764.75)">
<title>G</title>
<polygon fill="white" stroke="none" points="-4,4 -4,-764.75 904.07,-764.75 904.07,4 -4,4"/>
<!-- TrainingLoop -->
<g id="node1" class="node">
<title>TrainingLoop</title>
<polygon fill="lightblue" stroke="black" points="811.87,-730 675.87,-730 675.87,-694 811.87,-694 811.87,-730"/>
<text xml:space="preserve" text-anchor="middle" x="743.87" y="-709.2" font-family="Times,serif" font-size="14.00">Training Loop</text>
<text xml:space="preserve" text-anchor="middle" x="743.87" y="-698.7" font-family="Times,serif" font-size="14.00">(train_async.py)</text>
</g>
<!-- AsyncRolloutWorker -->
<g id="node2" class="node">
<title>AsyncRolloutWorker</title>
<polygon fill="lightblue" stroke="black" points="560.12,-509 281.62,-509 281.62,-473 560.12,-473 560.12,-509"/>
<text xml:space="preserve" text-anchor="middle" x="420.87" y="-488.2" font-family="Times,serif" font-size="14.00">AsyncRolloutWorker</text>
<text xml:space="preserve" text-anchor="middle" x="420.87" y="-477.7" font-family="Times,serif" font-size="14.00">(slime.rollout.fully_async_rollout)</text>
</g>
<!-- TrainingLoop&#45;&gt;AsyncRolloutWorker -->
<g id="edge1" class="edge">
<title>TrainingLoop&#45;&gt;AsyncRolloutWorker</title>
<path fill="none" stroke="black" d="M718.26,-693.63C660.78,-654.66 521.44,-560.19 455.97,-515.8"/>
<polygon fill="black" stroke="black" points="457.98,-512.93 447.74,-510.22 454.05,-518.73 457.98,-512.93"/>
<text xml:space="preserve" text-anchor="middle" x="642.37" y="-593.95" font-family="Times,serif" font-size="14.00">Requests samples</text>
</g>
<!-- RayDistributedSystem -->
<g id="node6" class="node">
<title>RayDistributedSystem</title>
<polygon fill="lightblue" stroke="black" points="697.37,-288 516.37,-288 516.37,-252 697.37,-252 697.37,-288"/>
<text xml:space="preserve" text-anchor="middle" x="606.87" y="-267.2" font-family="Times,serif" font-size="14.00">Ray Distributed System</text>
<text xml:space="preserve" text-anchor="middle" x="606.87" y="-256.7" font-family="Times,serif" font-size="14.00">(GPU Allocation)</text>
</g>
<!-- TrainingLoop&#45;&gt;RayDistributedSystem -->
<g id="edge7" class="edge">
<title>TrainingLoop&#45;&gt;RayDistributedSystem</title>
<path fill="none" stroke="black" d="M745.19,-693.57C748.37,-642.09 752.7,-487.27 700.87,-374.75 686.39,-343.32 658.94,-314.76 637.43,-295.59"/>
<polygon fill="black" stroke="black" points="639.92,-293.12 630.07,-289.22 635.33,-298.41 639.92,-293.12"/>
<text xml:space="preserve" text-anchor="middle" x="786.71" y="-482.95" font-family="Times,serif" font-size="14.00">Launches jobs</text>
</g>
<!-- SGLangEngine -->
<g id="node3" class="node">
<title>SGLangEngine</title>
<polygon fill="lightblue" stroke="black" points="164.62,-288 51.12,-288 51.12,-252 164.62,-252 164.62,-288"/>
<text xml:space="preserve" text-anchor="middle" x="107.87" y="-261.95" font-family="Times,serif" font-size="14.00">SGLang Engine</text>
</g>
<!-- AsyncRolloutWorker&#45;&gt;SGLangEngine -->
<g id="edge2" class="edge">
<title>AsyncRolloutWorker&#45;&gt;SGLangEngine</title>
<path fill="none" stroke="black" d="M281.13,-472.99C174.94,-456.86 41.57,-428.56 7.87,-385.25 -17.61,-352.5 26.07,-316.82 63.48,-294.2"/>
<polygon fill="black" stroke="black" points="65.13,-297.29 72,-289.23 61.6,-291.25 65.13,-297.29"/>
<text xml:space="preserve" text-anchor="middle" x="105.37" y="-371.95" font-family="Times,serif" font-size="14.00">Generates &amp; scores samples</text>
</g>
<!-- DataBuffer -->
<g id="node5" class="node">
<title>DataBuffer</title>
<polygon fill="lightblue" stroke="black" points="426.12,-288 327.62,-288 327.62,-252 426.12,-252 426.12,-288"/>
<text xml:space="preserve" text-anchor="middle" x="376.87" y="-261.95" font-family="Times,serif" font-size="14.00">Data Buffer</text>
</g>
<!-- AsyncRolloutWorker&#45;&gt;DataBuffer -->
<g id="edge5" class="edge">
<title>AsyncRolloutWorker&#45;&gt;DataBuffer</title>
<path fill="none" stroke="black" d="M341.95,-472.55C295.24,-457.73 239.8,-431.26 211.37,-385.25 181.26,-336.53 257.69,-303.34 316.49,-285.78"/>
<polygon fill="black" stroke="black" points="317.14,-289.23 325.78,-283.1 315.2,-282.51 317.14,-289.23"/>
<text xml:space="preserve" text-anchor="middle" x="305.12" y="-371.95" font-family="Times,serif" font-size="14.00">Re&#45;queues ABORTED samples</text>
</g>
<!-- AsyncRolloutWorker&#45;&gt;RayDistributedSystem -->
<g id="edge8" class="edge">
<title>AsyncRolloutWorker&#45;&gt;RayDistributedSystem</title>
<path fill="none" stroke="black" d="M439.82,-472.67C461.39,-452.54 497.23,-417.92 524.87,-385.25 549.02,-356.71 573.62,-321.43 589.49,-297.69"/>
<polygon fill="black" stroke="black" points="592.28,-299.81 594.89,-289.54 586.45,-295.94 592.28,-299.81"/>
<text xml:space="preserve" text-anchor="middle" x="614.64" y="-371.95" font-family="Times,serif" font-size="14.00">Utilizes assigned GPUs</text>
</g>
<!-- OutputQueue -->
<g id="node4" class="node">
<title>OutputQueue</title>
<polygon fill="lightblue" stroke="black" points="520.87,-66 414.87,-66 414.87,-30 520.87,-30 520.87,-66"/>
<text xml:space="preserve" text-anchor="middle" x="467.87" y="-39.95" font-family="Times,serif" font-size="14.00">Output Queue</text>
</g>
<!-- SGLangEngine&#45;&gt;OutputQueue -->
<g id="edge3" class="edge">
<title>SGLangEngine&#45;&gt;OutputQueue</title>
<path fill="none" stroke="black" d="M136.42,-251.55C200.75,-212.24 357.06,-116.72 429.65,-72.36"/>
<polygon fill="black" stroke="black" points="431.32,-75.44 438.03,-67.24 427.67,-69.47 431.32,-75.44"/>
<text xml:space="preserve" text-anchor="middle" x="374.12" y="-150.95" font-family="Times,serif" font-size="14.00">Completed sample groups</text>
</g>
<!-- OutputQueue&#45;&gt;TrainingLoop -->
<g id="edge4" class="edge">
<title>OutputQueue&#45;&gt;TrainingLoop</title>
<path fill="none" stroke="black" d="M494.8,-66.32C570.8,-117.23 784.98,-275.32 839.87,-473 861.97,-552.59 801.71,-641.73 766.79,-684.84"/>
<polygon fill="black" stroke="black" points="764.21,-682.47 760.52,-692.4 769.6,-686.93 764.21,-682.47"/>
<text xml:space="preserve" text-anchor="middle" x="851.32" y="-371.95" font-family="Times,serif" font-size="14.00">Drains groups</text>
</g>
<!-- DataBuffer&#45;&gt;AsyncRolloutWorker -->
<g id="edge6" class="edge">
<title>DataBuffer&#45;&gt;AsyncRolloutWorker</title>
<path fill="none" stroke="black" d="M380.64,-288.23C385.11,-308.8 392.73,-344.25 398.87,-374.75 404.83,-404.34 411.26,-438.28 415.62,-461.63"/>
<polygon fill="black" stroke="black" points="412.15,-462.12 417.42,-471.31 419.03,-460.84 412.15,-462.12"/>
<text xml:space="preserve" text-anchor="middle" x="460.74" y="-371.95" font-family="Times,serif" font-size="14.00">Provides prompts</text>
</g>
</g>
</svg>
